<?xml version="1.0" standalone="no"?>
<!DOCTYPE svg PUBLIC "-//W3C//DTD SVG 20010904//EN"
 "http://www.w3.org/TR/2001/REC-SVG-20010904/DTD/svg10.dtd">
<svg version="1.0" xmlns="http://www.w3.org/2000/svg"
 width="700.000000pt" height="700.000000pt" viewBox="0 0 700.000000 700.000000"
 preserveAspectRatio="xMidYMid meet">
<metadata>
Created by potrace 1.14, written by Peter Selinger 2001-2017
</metadata>
<g transform="translate(0.000000,700.000000) scale(0.100000,-0.100000)"
fill="#000000" stroke="none">
<path d="M3377 6634 c-1 -1 -49 -4 -107 -8 -58 -3 -116 -8 -130 -10 -14 -3
-47 -7 -75 -11 -75 -9 -108 -15 -223 -39 -174 -38 -383 -102 -540 -168 -110
-45 -291 -135 -352 -173 -22 -14 -42 -25 -45 -25 -13 0 -270 -177 -355 -245
-482 -383 -847 -911 -1035 -1494 -32 -101 -76 -270 -89 -341 -2 -14 -7 -36
-10 -50 -3 -14 -8 -42 -11 -62 -3 -21 -7 -53 -10 -71 -32 -199 -38 -626 -11
-787 2 -14 7 -51 11 -84 8 -68 13 -102 21 -136 3 -14 8 -36 10 -50 47 -274
219 -727 359 -946 40 -63 101 -101 169 -108 170 -17 289 165 209 320 -122 237
-197 409 -238 549 -10 33 -23 78 -30 100 -11 34 -27 108 -50 225 -3 14 -8 45
-11 70 -3 25 -7 52 -9 60 -18 72 -26 449 -12 595 37 383 148 740 335 1075 73
131 188 301 247 366 5 6 33 39 60 73 66 81 242 252 335 326 41 33 77 62 80 65
11 12 140 100 219 149 268 168 641 309 940 357 18 3 41 7 50 9 9 1 41 6 71 10
l55 6 -70 -63 c-227 -205 -390 -418 -516 -675 -94 -193 -175 -463 -194 -648
-3 -33 -9 -73 -11 -90 -7 -39 -7 -305 0 -370 17 -164 49 -319 92 -456 34 -108
113 -291 158 -369 20 -34 36 -64 36 -67 0 -9 129 -194 174 -248 161 -198 408
-408 601 -512 22 -11 57 -31 78 -42 168 -94 482 -191 692 -216 32 -4 68 -9 80
-11 26 -5 351 -5 390 1 17 2 50 6 75 9 305 35 629 157 900 337 162 108 272
204 429 375 l63 69 -6 -45 c-4 -25 -9 -63 -11 -85 -3 -22 -7 -47 -10 -55 -2
-8 -7 -30 -10 -47 -20 -123 -73 -303 -132 -453 -182 -461 -456 -827 -870
-1161 -40 -33 -209 -145 -278 -186 -130 -76 -377 -193 -407 -193 -8 0 -18 -4
-24 -9 -18 -17 -302 -99 -404 -117 -25 -4 -47 -8 -50 -9 -3 -1 -30 -5 -60 -9
-30 -5 -64 -10 -75 -12 -127 -24 -557 -23 -695 1 -14 2 -43 7 -65 10 -23 3
-52 7 -65 10 -291 55 -516 134 -779 271 -169 88 -232 95 -322 34 -63 -41 -92
-97 -92 -175 -1 -82 34 -143 106 -189 43 -28 210 -117 227 -121 3 -1 30 -13
61 -28 31 -14 94 -40 140 -57 46 -18 93 -36 104 -41 94 -40 474 -132 602 -144
32 -4 69 -8 83 -11 129 -22 547 -22 710 1 19 2 58 7 85 11 57 7 268 49 329 65
23 6 48 13 56 14 77 17 331 108 450 162 531 239 1008 642 1332 1128 86 129
282 495 292 547 2 7 8 27 15 43 76 187 164 518 187 707 12 99 13 113 19 198
11 143 12 242 3 299 -39 247 -348 358 -568 204 -40 -28 -73 -66 -129 -149
-181 -266 -370 -439 -633 -579 -169 -89 -406 -162 -593 -181 -92 -10 -288 -11
-345 -3 -25 4 -70 10 -100 14 -30 3 -89 15 -130 25 -482 122 -880 434 -1099
864 -66 130 -105 232 -140 371 -51 202 -60 472 -22 681 18 95 19 99 41 179
109 388 369 733 722 958 77 49 104 73 138 127 137 214 38 504 -190 555 -30 7
-196 14 -203 9z"/>
<path d="M5565 6540 c-94 -36 -129 -85 -211 -292 l-72 -183 -173 -70 c-96 -39
-189 -81 -207 -94 -125 -89 -154 -273 -62 -399 42 -59 76 -79 268 -156 l174
-71 71 -178 c56 -144 78 -187 113 -226 120 -133 348 -116 442 33 15 24 56 117
92 208 l65 166 160 63 c216 84 245 102 301 189 26 41 28 53 29 135 0 82 -3 95
-30 144 -42 76 -94 109 -293 188 -131 51 -173 73 -178 88 -3 11 -9 29 -14 40
-5 11 -32 79 -60 150 -27 72 -62 147 -75 168 -28 40 -92 88 -144 105 -50 18
-139 14 -196 -8z m288 -673 c23 -25 67 -56 97 -70 88 -40 286 -117 301 -117
33 0 -21 -25 -201 -95 -196 -76 -215 -97 -307 -327 -36 -93 -68 -168 -72 -168
-3 0 -20 40 -38 88 -113 311 -123 321 -371 421 l-176 70 34 15 c19 8 97 39
172 69 76 30 149 64 163 75 54 43 86 99 151 264 l67 170 69 -176 c57 -143 77
-183 111 -219z"/>
<path d="M4493 4859 c-103 -19 -178 -89 -231 -216 l-33 -79 -77 -29 c-138 -52
-212 -152 -212 -285 0 -123 78 -224 212 -275 70 -27 78 -33 94 -70 10 -22 26
-59 36 -83 82 -187 331 -234 467 -87 39 43 55 71 89 159 19 48 21 50 98 80
139 54 214 153 214 281 0 128 -75 226 -214 281 l-79 31 -29 72 c-47 118 -78
156 -163 196 -58 27 -113 35 -172 24z m82 -371 c21 -53 42 -87 79 -124 37 -37
71 -58 124 -79 39 -15 72 -29 72 -30 0 -1 -33 -15 -72 -30 -100 -39 -164 -104
-203 -204 -27 -67 -30 -71 -39 -50 -35 87 -70 151 -98 179 -27 26 -134 85
-186 101 -7 3 22 19 66 37 102 42 157 97 197 200 15 39 29 72 30 72 1 0 15
-33 30 -72z"/>
</g>
</svg>
